<?xml version="1.0"?>
<svg xmlns="http://www.w3.org/2000/svg" id="outline_copy" data-name="outline copy" viewBox="0 0 48 48" width="512" height="512"><path d="M33.173,43V.747a.75.75,0,0,0-.75-.75H8.945a.754.754,0,0,0-.532.221L.218,8.463A.75.75,0,0,0,0,8.992V43a.75.75,0,0,0,.75.75H32.423A.75.75,0,0,0,33.173,43Zm-1.5-.75H1.5V9.3L8.2,2.565V8.2H3.916a.75.75,0,0,0,0,1.5H8.945a.75.75,0,0,0,.75-.75V1.5H31.673Z"/><path d="M8.2,20.566a.75.75,0,0,0,.75.75H26.223a.75.75,0,0,0,0-1.5H8.945A.75.75,0,0,0,8.2,20.566Z"/><path d="M26.223,24.026H17.584a.75.75,0,0,0,0,1.5h8.639a.75.75,0,0,0,0-1.5Z"/><path d="M8.945,25.526h5.974a.75.75,0,0,0,0-1.5H8.945a.75.75,0,0,0,0,1.5Z"/><path d="M26.223,28.237H8.945a.75.75,0,0,0,0,1.5H26.223a.75.75,0,0,0,0-1.5Z"/><path d="M26.223,32.448H23.494a.75.75,0,0,0,0,1.5h2.729a.75.75,0,0,0,0-1.5Z"/><path d="M8.945,33.948H20.892a.75.75,0,1,0,0-1.5H8.945a.75.75,0,0,0,0,1.5Z"/><path d="M26.223,36.658H8.945a.75.75,0,0,0,0,1.5H26.223a.75.75,0,0,0,0-1.5Z"/><path d="M36.426,4.254H34.787a.75.75,0,0,0,0,1.5h.889V46.5H5.5v-1a.75.75,0,0,0-1.5,0v1.747a.75.75,0,0,0,.75.75H36.426a.75.75,0,0,0,.75-.75V5A.75.75,0,0,0,36.426,4.254Z"/><path d="M46.176,10.809h-.811V9.851a2.739,2.739,0,0,0-2.732-2.738h0A2.738,2.738,0,0,0,39.9,9.847l-.021,23.562a.765.765,0,0,0,.03.212l1.98,6.731a.749.749,0,0,0,.719.538h0a.749.749,0,0,0,.719-.537l1.991-6.728a.721.721,0,0,0,.032-.212l.018-21.1h.812a.325.325,0,0,1,.324.325v4.979a.75.75,0,0,0,1.5,0V12.634A1.826,1.826,0,0,0,46.176,10.809ZM41.758,8.975a1.229,1.229,0,0,1,.873-.362h0A1.237,1.237,0,0,1,43.866,9.85v1.7l0,.007,0,.007-.019,21.1-2.47,0,.012-14.379h1.234a.75.75,0,0,0,0-1.5H41.389L41.4,9.848A1.223,1.223,0,0,1,41.758,8.975Zm.848,28.515-.978-3.33,1.964,0Z"/><path d="M13.735,12.34a7.039,7.039,0,0,0,3.619,2.972.753.753,0,0,0,.46,0,7.04,7.04,0,0,0,3.619-2.971c.452-.789.761-3.95.873-5.272a.751.751,0,0,0-.718-.813,7.293,7.293,0,0,1-2.064-.428,8.8,8.8,0,0,1-1.508-.84.752.752,0,0,0-.864,0,8.8,8.8,0,0,1-1.508.84,7.293,7.293,0,0,1-2.064.428.751.751,0,0,0-.718.813C12.974,8.391,13.283,11.552,13.735,12.34ZM16.2,7.222A9.07,9.07,0,0,0,17.584,6.5a9.07,9.07,0,0,0,1.389.724h0a8.111,8.111,0,0,0,1.77.454,21.764,21.764,0,0,1-.612,3.919,5.541,5.541,0,0,1-2.55,2.2,5.473,5.473,0,0,1-2.544-2.2,21.6,21.6,0,0,1-.614-3.922A8.133,8.133,0,0,0,16.2,7.222Z"/><path d="M17.143,10.924a.748.748,0,0,0,1.06,0l1.612-1.612a.75.75,0,0,0-1.06-1.06L17.673,9.333,17.4,9.058a.75.75,0,1,0-1.06,1.06Z"/></svg>
