<svg height="496pt" viewBox="0 -88 496 496" width="496pt" xmlns="http://www.w3.org/2000/svg"><path d="m488 195.792969h-297.570312c-4.417969 0-8-3.585938-8-8v-160.40625c0-15.097657 11.953124-27.386719 26.65625-27.386719h260.257812c14.699219 0 26.65625 12.285156 26.65625 27.386719v160.410156c0 4.414063-3.585938 7.996094-8 7.996094zm-289.570312-16h281.570312v-152.40625c0-6.273438-4.78125-11.386719-10.65625-11.386719h-260.257812c-5.878907 0-10.65625 5.109375-10.65625 11.386719zm0 0"/><path d="m190.429688 283.414062h-44.535157c-4.414062 0-8-3.582031-8-8 0-4.414062 3.585938-8 8-8h36.535157v-197.128906h-55.808594c-5.5 0-10.820313 2.214844-14.980469 6.234375l-87.804687 84.859375c-4.980469 4.8125-7.835938 11.769532-7.835938 19.082032v61.640624c0 13.953126 10.234375 25.308594 22.816406 25.308594h37.945313c4.414062 0 8 3.585938 8 8 0 4.417969-3.585938 8-8 8h-37.945313c-21.40625.003906-38.816406-18.527344-38.816406-41.308594v-61.640624c0-11.628907 4.636719-22.777344 12.714844-30.589844l87.804687-84.859375c7.160157-6.914063 16.429688-10.726563 26.101563-10.726563h63.808594c4.414062 0 8 3.582032 8 8v213.125c0 4.421875-3.585938 8.003906-8 8.003906zm0 0"/><path d="m488 284.046875h-27.3125c-4.414062 0-8-3.582031-8-8 0-4.414063 3.585938-8 8-8h19.3125v-72.253906h-281.570312v72.25h193.0625c4.414062 0 8 3.585937 8 8 0 4.417969-3.585938 8-8 8h-201.0625c-4.417969 0-8-3.582031-8-8v-88.25c0-4.417969 3.582031-8 8-8h297.570312c4.414062 0 8 3.582031 8 8v88.25c0 4.421875-3.585938 8.003906-8 8.003906zm0 0"/><path d="m142.253906 187.449219h-69.65625c-5.289062 0-14.457031-3.15625-18.035156-11.855469-.089844-.226562-.171875-.453125-.246094-.6875-2.828125-9.164062 2.140625-17.273438 4.402344-20.339844.203125-.265625.417969-.53125.652344-.769531 7.945312-8.300781 15.894531-16.753906 23.835937-25.195313 8.003907-8.511718 16.011719-17.027343 24.019531-25.390624 6.835938-6.582032 14.824219-9.9375 23.328126-9.9375h12.230468c14.441406 0 23.417969 9.449218 23.417969 24.667968v44.257813c0 15.339843-9.398437 25.25-23.949219 25.25zm-72.734375-17.648438c.699219 1.0625 2.570313 1.613281 3.132813 1.648438h69.601562c4.125 0 7.949219-1.121094 7.949219-9.25v-44.257813c0-8.035156-3.214844-8.667968-7.417969-8.667968h-12.230468c-4.410157 0-8.335938 1.714843-12 5.238281-7.738282 8.097656-15.714844 16.578125-23.6875 25.050781-7.84375 8.34375-15.691407 16.683594-23.535157 24.890625-1.144531 1.652344-2.050781 3.800781-1.8125 5.347656zm0 0"/><path d="m111.328125 320c-23.488281 0-42.597656-19.71875-42.597656-43.953125 0-24.238281 19.109375-43.953125 42.597656-43.953125 23.492187 0 42.601563 19.71875 42.601563 43.953125-.003907 24.234375-19.113282 43.953125-42.601563 43.953125zm0-71.910156c-14.667969 0-26.597656 12.542968-26.597656 27.953125 0 15.414062 11.929687 27.957031 26.597656 27.957031s26.601563-12.539062 26.601563-27.953125c0-15.410156-11.933594-27.957031-26.601563-27.957031zm0 0"/><path d="m426.089844 320c-23.492188 0-42.601563-19.71875-42.601563-43.953125 0-24.238281 19.109375-43.953125 42.601563-43.953125 23.484375 0 42.59375 19.71875 42.59375 43.953125.003906 24.234375-19.105469 43.953125-42.59375 43.953125zm0-71.910156c-14.667969 0-26.601563 12.542968-26.601563 27.953125 0 15.414062 11.933594 27.953125 26.601563 27.953125 14.667968 0 26.59375-12.539063 26.59375-27.953125 0-15.410157-11.925782-27.953125-26.59375-27.953125zm0 0"/></svg>